# xmcd CD database file
#
# Track frame offsets:
#	150
#	26852
#	51871
#	81319
#	109260
#	141520
#	171832
#	207119
#	234652
#	264228
#
# Disc length: 3789 seconds
#
# Revision: 0
# Processed by: cddbd v1.5PL3 Copyright (c) Steve Scherf et al.
# Submitted via: CDex 1.50
#
DISCID=8f0ecb0a
DTITLE=Asým Can Gündüz - Bir Sevgi Eseri
DYEAR=1998
DGENRE=Blues
TTITLE0=Þahanesin Sevgili (Wonderful Tonight)
TTITLE1=Cennetteki Gözyaþlarý (Tears in heaven)
TTITLE2=Gönlümdeki Acýn Silinmedi (Still Got The Blues)
TTITLE3=Dur! (Stop)
TTITLE4=Aþkým (Lady)
TTITLE5=Aþk Dansý (Careless  Whisper)
TTITLE6=Here Again
TTITLE7=Sonsuzluða Kadar Bekleyeceðim (Right here waiting)
TTITLE8=Europa
TTITLE9=Kumsaldaki Rüya (Eski folk efsanesi)
EXTD=YEAR: 1998
EXTT0=
EXTT1=
EXTT2=
EXTT3=
EXTT4=
EXTT5=
EXTT6=
EXTT7=
EXTT8=
EXTT9=
PLAYORDER=
